HIERARCHY
ROOT Hips
{
	OFFSET 0.000000 0.000000 0.000000
	CHANNELS 6 Xposition Yposition Zposition Zrotation Yrotation Xrotation 
	JOINT LowerBack
	{
		OFFSET 0.000000 0.000000 0.000000
		CHANNELS 3 Zrotation Yrotation Xrotation
		JOINT Spine
		{
			OFFSET 0.028270 2.035590 -0.193380
			CHANNELS 3 Zrotation Yrotation Xrotation
			JOINT Spine1
			{
				OFFSET 0.056720 2.048850 -0.042750
				CHANNELS 3 Zrotation Yrotation Xrotation
				JOINT Neck
				{
					OFFSET 0.000000 0.000000 0.000000
					CHANNELS 3 Zrotation Yrotation Xrotation
					JOINT Neck1
					{
						OFFSET -0.054170 1.746240 0.172020
						CHANNELS 3 Zrotation Yrotation Xrotation
						JOINT Head
						{
							OFFSET 0.104070 1.761360 -0.123970
							CHANNELS 3 Zrotation Yrotation Xrotation
							End Site
							{
								OFFSET 0.000000 0.000000 0.000000
							}
						}
					}
				}
				JOINT LeftShoulder
				{
					OFFSET 0.000000 0.000000 0.000000
					CHANNELS 3 Zrotation Yrotation Xrotation
					JOINT LeftArm
					{
						OFFSET 3.362410 1.200890 -0.311210
						CHANNELS 3 Zrotation Yrotation Xrotation
						JOINT LeftForeArm
						{
							OFFSET 4.983000 -0.000000 -0.000000
							CHANNELS 3 Zrotation Yrotation Xrotation
							JOINT LeftHand
							{
								OFFSET 3.483560 -0.000000 -0.000000
								CHANNELS 3 Zrotation Yrotation Xrotation
								JOINT LeftFingerBase
								{
									OFFSET 0.000000 0.000000 0.000000
									CHANNELS 3 Zrotation Yrotation Xrotation
									JOINT LeftHandIndex1
									{
										OFFSET 0.715260 -0.000000 -0.000000
										CHANNELS 3 Zrotation Yrotation Xrotation
										End Site
										{
											OFFSET 0.000000 0.000000 0.000000
										}
									}
								}
								JOINT LThumb
								{
									OFFSET 0.000000 0.000000 0.000000
									CHANNELS 3 Zrotation Yrotation Xrotation
									End Site
									{
										OFFSET 0.000000 0.000000 0.000000
									}
								}
							}
						}
					}
				}
				JOINT RightShoulder
				{
					OFFSET 0.000000 0.000000 0.000000
					CHANNELS 3 Zrotation Yrotation Xrotation
					JOINT RightArm
					{
						OFFSET -3.136600 1.374050 -0.404650
						CHANNELS 3 Zrotation Yrotation Xrotation
						JOINT RightForeArm
						{
							OFFSET -5.241900 -0.000000 -0.000000
							CHANNELS 3 Zrotation Yrotation Xrotation
							JOINT RightHand
							{
								OFFSET -3.444170 -0.000000 -0.000000
								CHANNELS 3 Zrotation Yrotation Xrotation
								JOINT RightFingerBase
								{
									OFFSET 0.000000 0.000000 0.000000
									CHANNELS 3 Zrotation Yrotation Xrotation
									JOINT RightHandIndex1
									{
										OFFSET -0.622530 -0.000000 -0.000000
										CHANNELS 3 Zrotation Yrotation Xrotation
										End Site
										{
											OFFSET 0.000000 0.000000 0.000000
										}
									}
								}
								JOINT RThumb
								{
									OFFSET 0.000000 0.000000 0.000000
									CHANNELS 3 Zrotation Yrotation Xrotation
									End Site
									{
										OFFSET 0.000000 0.000000 0.000000
									}
								}
							}
						}
					}
				}
			}
		}
	}
}
}
MOTION
Frames: 14
Frame Time: 0.008333
-19.780101 16.169743 -0.254702 51.916165 82.838360 92.274991 -8.872526 2.806192 -7.043921 -2.502797 3.298309 -4.526841 -3.287902 3.141204 0.712881 3.778153 -3.242003 -2.451721 -0.676384 -0.132752 1.348154 0.000000 0.000000 0.000000 7.694646 15.369145 2.400923 -38.823141 50.193134 30.585667 -3.107589 -48.276586 0.000377 -4.780697 -2.417947 0.095791 -0.127614 -0.069459 -0.000000 0.000000 0.000000 0.000000 0.000000 0.000000 0.000000 -1.936057 1.970399 -3.111930 60.449056 57.521998 8.285896 0.329780 88.562951 -0.018421 0.343910 9.033549 0.041872 -0.146775 -0.660657 -0.000000 0.000000 0.000000 0.000000 0.000000 0.000000 0.000000 
-19.496179 16.232921 -0.243211 52.952904 82.842615 93.369568 -9.374117 2.941629 -7.003112 -2.609256 3.468817 -4.533229 -3.192406 3.313967 0.715557 3.560888 -3.209813 -2.461272 -0.586527 -0.126212 1.343820 0.000000 0.000000 0.000000 7.753983 15.578624 2.403714 -38.335654 49.919404 30.254088 -2.999736 -49.854831 0.002272 -4.503404 -2.655425 0.099641 -0.129767 -0.058849 -0.000000 0.000000 0.000000 0.000000 0.000000 0.000000 0.000000 -2.531090 2.076973 -3.092494 59.601962 57.296206 7.433361 0.353562 88.780682 -0.016380 0.542671 8.836670 0.057974 -0.151517 -0.660882 -0.000000 0.000000 0.000000 0.000000 0.000000 0.000000 0.000000 
-19.212328 16.290798 -0.233818 54.044149 82.927139 94.488420 -9.786458 3.062949 -6.919548 -2.701368 3.616387 -4.526735 -3.127989 3.465686 0.728515 3.398441 -3.140148 -2.474856 -0.524874 -0.121489 1.336756 0.000000 0.000000 0.000000 7.772955 15.797916 2.410408 -38.146607 49.465903 29.795874 -2.887496 -51.392601 0.003925 -4.183847 -2.859271 0.099889 -0.131757 -0.049698 -0.000000 0.000000 0.000000 0.000000 0.000000 0.000000 0.000000 -2.963913 2.228724 -3.059944 58.958767 56.862868 6.877937 0.371610 88.905836 -0.014617 0.666675 8.659397 0.067088 -0.152349 -0.659180 -0.000000 0.000000 0.000000 0.000000 0.000000 0.000000 0.000000 
-18.928415 16.342348 -0.226318 55.281914 83.092818 95.725654 -10.111965 3.173163 -6.806861 -2.780218 3.744767 -4.510402 -3.095980 3.599682 0.750703 3.296425 -3.038273 -2.489931 -0.490848 -0.118612 1.327945 0.000000 0.000000 0.000000 7.736351 16.020012 2.415666 -38.193919 48.840128 29.245463 -2.772227 -52.898804 0.005252 -3.839951 -3.013497 0.096733 -0.133401 -0.042221 -0.000000 0.000000 0.000000 0.000000 0.000000 0.000000 0.000000 -3.231850 2.422598 -3.009948 58.546067 56.212903 6.629648 0.382760 88.918407 -0.012912 0.741520 8.489773 0.071617 -0.149652 -0.655213 -0.000000 0.000000 0.000000 0.000000 0.000000 0.000000 0.000000 
-18.644078 16.386489 -0.220340 56.725268 83.328132 97.138910 -10.363382 3.274878 -6.672998 -2.848866 3.858120 -4.485722 -3.096219 3.719750 0.783105 3.257951 -2.913428 -2.508478 -0.483308 -0.117490 1.317005 0.000000 0.000000 0.000000 7.651278 16.250784 2.417572 -38.436031 48.021722 28.647926 -2.655817 -54.353084 0.006278 -3.473966 -3.121934 0.090574 -0.134651 -0.036345 -0.000000 0.000000 0.000000 0.000000 0.000000 0.000000 0.000000 -3.334775 2.650214 -2.940270 58.388328 55.349637 6.688815 0.387103 88.783830 -0.010978 0.802296 8.316183 0.074558 -0.144111 -0.648603 -0.000000 0.000000 0.000000 0.000000 0.000000 0.000000 0.000000 
-18.358989 16.422311 -0.215765 58.402454 83.628657 98.755518 -10.543334 3.371033 -6.524868 -2.907909 3.960360 -4.454285 -3.128310 3.829361 0.824787 3.281319 -2.772901 -2.533180 -0.501058 -0.118008 1.303396 0.000000 0.000000 0.000000 7.513773 16.494723 2.414056 -38.824844 47.003667 28.039826 -2.540049 -55.743381 0.007057 -3.087530 -3.194265 0.082111 -0.135542 -0.031857 -0.000000 0.000000 0.000000 0.000000 0.000000 0.000000 0.000000 -3.277650 2.905288 -2.849703 58.498432 54.279251 7.040632 0.386005 88.459377 -0.008538 0.885095 8.126151 0.078811 -0.136511 -0.638936 -0.000000 0.000000 0.000000 0.000000 0.000000 0.000000 0.000000 
-18.073176 16.449003 -0.212496 60.332152 83.989912 100.591940 -10.652004 3.463738 -6.365300 -2.957186 4.054379 -4.417259 -3.191245 3.930974 0.872870 3.361073 -2.620368 -2.566762 -0.542804 -0.120042 1.286541 0.000000 0.000000 0.000000 7.314240 16.754024 2.403497 -39.312663 45.790728 27.449103 -2.426521 -57.063342 0.007664 -2.680953 -3.244072 0.072146 -0.136186 -0.028442 -0.000000 0.000000 0.000000 0.000000 0.000000 0.000000 0.000000 -3.069058 3.184592 -2.738309 58.876276 53.010563 7.654529 0.382663 87.898922 -0.005392 1.021918 7.909043 0.086375 -0.127642 -0.625848 -0.000000 0.000000 0.000000 0.000000 0.000000 0.000000 0.000000 
-17.786691 16.465884 -0.210617 62.549609 84.407258 102.677701 -10.688000 3.553815 -6.191504 -2.995970 4.141525 -4.374871 -3.283485 4.025553 0.923143 3.488812 -2.456285 -2.612043 -0.607316 -0.123463 1.265787 0.000000 0.000000 0.000000 7.041890 17.030122 2.384860 -39.859120 44.394748 26.895386 -2.316465 -58.311406 0.008187 -2.251115 -3.287581 0.060878 -0.136768 -0.025724 -0.000000 0.000000 0.000000 0.000000 0.000000 0.000000 0.000000 -2.719741 3.486948 -2.607721 59.506629 51.555324 8.483619 0.382107 87.057686 -0.001678 1.232908 7.657885 0.098244 -0.118163 -0.609117 -0.000000 0.000000 0.000000 0.000000 0.000000 0.000000 0.000000 
-17.499651 16.472083 -0.209658 65.078907 84.848286 105.028635 -10.678431 3.638625 -5.996204 -3.029552 4.221249 -4.327475 -3.401811 4.112304 0.969310 3.656434 -2.275605 -2.669815 -0.692500 -0.128111 1.240934 0.000000 0.000000 0.000000 6.698342 17.318499 2.359041 -40.434901 42.835004 26.390371 -2.210779 -59.488572 0.008700 -1.793483 -3.340250 0.048711 -0.137455 -0.023264 -0.000000 0.000000 0.000000 0.000000 0.000000 0.000000 0.000000 -2.242791 3.814512 -2.460992 60.369492 49.921673 9.467323 0.392490 85.898619 0.002992 1.522460 7.371983 0.114214 -0.108498 -0.588834 -0.000000 0.000000 0.000000 0.000000 0.000000 0.000000 0.000000 
-17.212195 16.467222 -0.209913 68.006436 85.308225 107.725773 -10.618929 3.716036 -5.771557 -3.055990 4.291335 -4.274122 -3.543326 4.188709 1.006818 3.852204 -2.073301 -2.741701 -0.797279 -0.133876 1.211544 0.000000 0.000000 0.000000 6.271285 17.620351 2.325513 -41.016806 41.128115 25.940612 -2.109880 -60.602189 0.009261 -1.300910 -3.412877 0.035145 -0.138506 -0.020759 -0.000000 0.000000 0.000000 0.000000 0.000000 0.000000 0.000000 -1.651336 4.168057 -2.301991 61.423231 48.124968 10.540468 0.420895 84.394510 0.007735 1.872448 7.059524 0.132184 -0.098704 -0.565305 -0.000000 0.000000 0.000000 0.000000 0.000000 0.000000 0.000000 
-16.924977 16.450698 -0.210837 71.339476 85.741600 110.774953 -10.549853 3.780410 -5.512134 -3.082897 4.348655 -4.215645 -3.702907 4.251474 1.029825 4.068231 -1.839357 -2.826062 -0.919172 -0.140599 1.177968 0.000000 0.000000 0.000000 5.770235 17.928425 2.286123 -41.596031 39.292773 25.545720 -2.014062 -61.658548 0.009902 -0.768043 -3.511928 0.019982 -0.140069 -0.017874 -0.000000 0.000000 0.000000 0.000000 0.000000 0.000000 0.000000 -0.960354 4.550948 -2.135196 62.631003 46.171282 11.629428 0.475565 82.534739 0.012270 2.247218 6.736932 0.149445 -0.088570 -0.539301 -0.000000 0.000000 0.000000 0.000000 0.000000 0.000000 0.000000 
-16.638024 16.422437 -0.212363 75.082595 86.123743 114.185333 -10.490474 3.827222 -5.216446 -3.113052 4.389699 -4.152611 -3.875900 4.296902 1.035051 4.296673 -1.565813 -2.921188 -1.056348 -0.148164 1.140586 0.000000 0.000000 0.000000 5.195699 18.238357 2.241240 -42.167161 37.339157 25.203015 -1.923380 -62.666200 0.010621 -0.190243 -3.636623 0.002324 -0.142304 -0.014426 -0.000000 0.000000 0.000000 0.000000 0.000000 0.000000 0.000000 -0.183484 4.963555 -1.964696 63.945577 44.068116 12.664282 0.561731 80.323344 0.016102 2.594558 6.427931 0.163000 -0.077634 -0.511792 -0.000000 0.000000 0.000000 0.000000 0.000000 0.000000 0.000000 
-16.352041 16.382976 -0.214864 79.288574 86.446314 118.012951 -10.442406 3.854115 -4.880394 -3.145165 4.411749 -4.083059 -4.057800 4.322238 1.025514 4.531547 -1.256277 -3.028786 -1.207608 -0.156433 1.098785 0.000000 0.000000 0.000000 4.549630 18.557294 2.190438 -42.739426 35.248025 24.908915 -1.838252 -63.620343 0.011389 0.433094 -3.778988 -0.018130 -0.145309 -0.010338 -0.000000 0.000000 0.000000 0.000000 0.000000 0.000000 0.000000 0.670643 5.393811 -1.793620 65.309801 41.836663 13.587915 0.680702 77.773763 0.018790 2.852343 6.157966 0.170346 -0.065335 -0.483731 -0.000000 0.000000 0.000000 0.000000 0.000000 0.000000 0.000000 
-16.067116 16.332908 -0.217898 83.825117 86.680041 122.140537 -10.434184 3.858183 -4.511447 -3.183635 4.413302 -4.009332 -4.242632 4.325963 0.999697 4.768821 -0.905445 -3.144124 -1.369242 -0.165208 1.053846 0.000000 0.000000 0.000000 3.839039 18.871917 2.133775 -43.313815 33.017376 24.657679 -1.758895 -64.525719 0.012166 1.097918 -3.929384 -0.041777 -0.149129 -0.005471 -0.000000 0.000000 0.000000 0.000000 0.000000 0.000000 0.000000 1.580608 5.838973 -1.625240 66.690147 39.467620 14.335367 0.829459 74.918677 0.020096 2.966168 5.950369 0.169984 -0.051376 -0.456185 -0.000000 0.000000 0.000000 0.000000 0.000000 0.000000 0.000000 
